PathFileType	4	(X/Y/Z)	PS_ngait_og_ss8.trc	
DataRate	CameraRate	NumFrames	NumMarkers	Units	OrigDataRate	OrigDataStartFrame	OrigNumFrames	
120.00	120.00	5	39	mm	120.00	442	129	
Frame#	Time	Sternum			Neck			RShoulder			LShoulder			Xiphoid			Thoracic			RAsis			LAsis			RPsis			LPsis			LThighSuperior			LThighInferior			LThighLateral			LShankSuperior			LShankInferior			LShankLateral			RThighSuperior			RThighInferior			RThighLateral			RShankSuperior			RShankInferior			RShankLateral			RHeel			RToe			RMidfootMedial			RMidfootLateral			RHindfoot			RMidfootSuperior			RToeMedial			RToeLateral			LHeel			LToe			LMidfootMedial			LMidfootLateral			LHindfoot			LMidfootSuperior			LToeMedial			LToeLateral			Sacral			
		X1	Y1	Z1	X2	Y2	Z2	X3	Y3	Z3	X4	Y4	Z4	X5	Y5	Z5	X6	Y6	Z6	X7	Y7	Z7	X8	Y8	Z8	X9	Y9	Z9	X10	Y10	Z10	X11	Y11	Z11	X12	Y12	Z12	X13	Y13	Z13	X14	Y14	Z14	X15	Y15	Z15	X16	Y16	Z16	X17	Y17	Z17	X18	Y18	Z18	X19	Y19	Z19	X20	Y20	Z20	X21	Y21	Z21	X22	Y22	Z22	X23	Y23	Z23	X24	Y24	Z24	X25	Y25	Z25	X26	Y26	Z26	X27	Y27	Z27	X28	Y28	Z28	X29	Y29	Z29	X30	Y30	Z30	X31	Y31	Z31	X32	Y32	Z32	X33	Y33	Z33	X34	Y34	Z34	X35	Y35	Z35	X36	Y36	Z36	X37	Y37	Z37	X38	Y38	Z38	X39	Y39	Z39	

65	0.533	626.80658	1433.89197	104.56741	463.21817	1534.07129	101.37529	504.41235	1520.01038	265.68484	498.34927	1523.43030	-35.56994	659.68274	1276.29163	110.87094	381.84354	1316.40601	111.86639	575.48535	1003.54156	245.02911	578.26593	1011.94806	-30.02082	386.62512	1036.37170	165.38261	380.69635	1030.58118	60.99450	489.45169	831.80762	-98.54901	459.44592	605.10529	-42.89548	557.85803	693.46735	-0.63653	398.44949	371.31897	-41.93894	314.27466	187.46291	-4.85502	390.03735	264.80658	29.70333	540.84625	813.36041	293.20923	634.09125	595.36182	265.78534	664.51428	760.43359	230.27431	660.55591	438.26477	276.33585	735.63647	195.55608	248.40050	755.39612	333.33405	208.32100	697.71454	55.17579	192.83246	998.39008	141.37070	221.43279	917.49176	90.69527	165.95688	906.81610	84.87746	279.34378	859.31818	70.80473	269.01260	858.41064	134.70226	213.40198	956.74384	108.77141	171.54413	951.84760	109.30946	274.90878	195.06992	72.47057	53.32294	506.56259	52.74156	7.82939	408.51593	36.06199	71.98779	398.27963	31.17027	-46.33937	343.62524	31.58745	-31.35684	383.92859	94.88897	23.53068	452.38293	34.45821	62.38382	444.51581	38.54022	-41.25443	383.66074	1033.47644	113.18855 
66	0.542	635.41992	1432.93738	105.91692	471.46353	1532.76196	103.38849	512.88599	1518.26404	267.42905	506.44565	1522.74146	-33.76517	668.64899	1275.41028	111.73903	390.74619	1314.84888	113.11421	585.72070	1002.36902	245.10135	587.30865	1010.53210	-29.18980	396.38681	1034.85632	166.43987	389.91351	1029.06177	62.22786	497.64728	831.28857	-96.46608	466.97372	603.75446	-42.26052	565.72906	691.81073	-0.70190	402.80170	370.72070	-41.16974	316.41119	188.25545	-4.48370	393.23135	264.40128	29.77597	553.53705	812.45599	293.10886	645.95203	594.23810	266.22617	676.11169	760.31378	230.25383	669.14191	436.87006	275.86719	739.64227	192.88527	246.94299	761.77075	330.30692	207.06503	699.51050	55.71780	192.72768	1002.76031	132.74321	217.15823	920.00647	83.73286	163.04915	910.56702	78.95799	276.68048	862.41199	66.29898	267.01736	862.57147	129.49113	210.85658	959.71704	100.84419	168.00813	956.09485	102.21344	271.41760	195.76311	74.47020	53.36019	506.93015	52.19165	7.74969	408.65649	36.12659	72.02193	398.43768	31.15734	-46.27920	343.72253	32.15483	-31.29293	384.74408	95.02587	23.47601	452.64993	34.28387	62.32874	444.80130	38.28310	-41.31413	393.15015	1031.95898	114.33386 
67	0.550	644.03735	1432.10168	107.45472	479.76428	1531.54944	105.36709	521.52618	1516.51392	269.30450	514.47321	1522.03735	-31.91074	677.64288	1274.62170	112.78703	399.67514	1313.36853	114.48817	596.12457	1001.48315	245.36494	596.31079	1009.14746	-28.47893	406.27451	1033.43298	167.72765	399.24350	1027.69226	63.64869	506.00159	830.77405	-94.18498	474.72919	602.59344	-41.62591	574.36707	690.38812	-0.40993	407.50412	370.10452	-40.41267	319.05579	189.02122	-3.95755	396.98688	264.17886	30.28105	566.79218	811.75659	293.12888	656.47015	592.81146	266.49823	688.29846	760.23993	230.07158	677.13782	435.17072	275.23050	744.40051	190.69463	246.13429	768.10620	327.56958	206.05682	701.85071	56.46428	193.23354	1006.84619	124.58846	213.22574	922.37024	77.24548	160.71063	914.74445	74.04298	275.48599	865.48334	61.77016	265.18283	866.55139	124.78237	208.69417	962.40533	93.32126	164.92070	960.12512	95.73811	268.34930	196.59660	76.76375	53.61156	507.20743	51.63285	7.61647	408.97971	36.10185	71.94498	398.27902	31.29761	-46.38034	344.50150	32.10915	-30.89091	385.59528	95.61578	23.35006	452.88376	33.98936	62.23835	444.93408	38.17380	-41.38951	402.75900	1030.56262	115.68816 
68	0.558	652.64001	1431.28259	108.71189	488.02826	1530.45215	107.37296	530.25806	1514.84900	271.33618	522.42499	1521.46802	-29.97858	686.76147	1274.19250	113.70679	408.66275	1311.99243	115.99809	606.68158	1001.05560	245.85988	605.29791	1007.70514	-27.71582	416.27081	1032.20557	169.26944	408.64398	1026.41077	65.26894	514.52899	830.26123	-91.72655	482.70239	601.71143	-41.08052	583.08411	689.21295	-0.40180	413.26001	369.75644	-40.13346	321.68768	190.45020	-3.20942	400.80008	264.13010	30.10833	580.07544	811.35577	292.98233	665.41669	591.13452	266.54465	701.08978	759.83234	229.61459	684.84650	433.52176	274.79126	750.11041	188.86076	245.98859	774.76093	325.23566	205.52133	704.35895	57.57665	193.70270	1010.81250	116.33448	210.20334	924.29901	71.51477	158.62338	918.05573	67.44152	273.05380	868.98511	57.17766	263.29617	870.51428	120.09703	207.86745	964.85419	86.57772	162.36642	964.23315	88.23662	265.83322	197.76508	79.71217	54.00217	507.61313	51.07479	7.52913	409.38080	36.18646	71.89607	398.28763	31.37387	-46.41831	343.78491	33.23560	-30.56047	386.67139	95.86404	23.33124	453.21613	33.78748	62.19188	445.22311	37.99697	-41.43164	412.45740	1029.30823	117.26920 
69	0.567	661.26556	1430.70764	110.21260	496.34735	1529.45996	109.52055	539.06818	1513.29138	273.25577	530.25073	1521.04578	-28.05657	696.08575	1273.88757	114.26522	417.81589	1310.70190	117.62957	617.43433	1000.70361	246.26619	614.24695	1006.27136	-26.92573	426.41064	1031.05652	170.88419	418.11963	1025.21790	67.12694	523.24518	829.74695	-89.11617	491.39478	600.74780	-40.35424	592.29041	688.25934	-0.23874	419.21356	369.75739	-39.49483	324.61105	192.25272	-2.85576	405.65005	264.47827	30.82101	593.00018	811.61652	292.77777	673.14734	589.41705	266.52942	713.79974	759.05426	229.52716	692.52673	432.01212	274.91531	756.14496	186.91769	246.35938	781.11334	323.11060	205.37892	706.69708	58.76410	194.00374	1014.59082	107.19978	208.55843	926.23846	65.14981	157.31020	921.06586	61.49325	272.54456	871.84570	52.31182	262.29767	874.47717	115.49448	206.95383	967.44775	78.97313	160.94762	967.41687	80.58682	264.41699	199.14114	83.36803	54.34661	508.07068	50.68771	7.31821	409.78900	36.28263	71.85831	398.36899	31.48487	-46.54781	344.15732	34.40583	-30.77302	388.42822	96.17231	23.71398	453.66159	33.67536	62.05516	445.55194	37.91242	-41.55816	422.26514	1028.13721	119.00556 
